<svg width="17" height="16" viewBox="0 0 17 16" fill="none" xmlns="http://www.w3.org/2000/svg">
<path fill-rule="evenodd" clip-rule="evenodd" d="M12.5169 11.1161C13.0265 10.6065 13.3127 9.91537 13.3127 9.19475C13.3127 8.47412 13.0265 7.78301 12.5169 7.27341L8.33539 3.09187C8.21542 2.97198 8.14799 2.80934 8.14793 2.63974C8.14787 2.47013 8.21518 2.30744 8.33507 2.18747C8.45496 2.06749 8.6176 2.00006 8.78721 2C8.95682 1.99994 9.1195 2.06726 9.23948 2.18715L13.421 6.36869C14.1705 7.11804 14.5917 8.13444 14.5918 9.1943C14.5919 10.2542 14.171 11.2706 13.4217 12.0202C12.6723 12.7697 11.6559 13.1908 10.5961 13.1909C9.53619 13.1911 8.5197 12.7702 7.77018 12.0208L2.68456 6.93454C2.14489 6.39479 1.84174 5.66276 1.8418 4.89949C1.84186 4.13622 2.14512 3.40424 2.68488 2.86457C3.22463 2.3249 3.95666 2.02175 4.71993 2.02181C5.48319 2.02187 6.21518 2.32514 6.75485 2.86489L11.8398 7.94988C12.1618 8.28149 12.3404 8.72649 12.3369 9.18869C12.3335 9.65089 12.1483 10.0932 11.8215 10.42C11.4946 10.7468 11.0523 10.9318 10.5901 10.9351C10.1278 10.9384 9.6829 10.7598 9.35137 10.4377L4.71842 5.80412C4.59845 5.68423 4.53101 5.52159 4.53095 5.35198C4.53089 5.18237 4.59821 5.01969 4.7181 4.89972C4.83799 4.77974 5.00063 4.71231 5.17024 4.71225C5.33985 4.71219 5.50253 4.77951 5.6225 4.8994L10.2561 9.53298C10.3461 9.62311 10.4683 9.67378 10.5957 9.67384C10.7231 9.6739 10.8453 9.62334 10.9354 9.5333C11.0256 9.44326 11.0762 9.3211 11.0763 9.1937C11.0763 9.06629 11.0258 8.94409 10.9358 8.85396L5.85076 3.76897C5.70231 3.62044 5.52606 3.5026 5.33207 3.42218C5.13808 3.34176 4.93015 3.30034 4.72015 3.30028C4.51015 3.30023 4.3022 3.34153 4.10817 3.42184C3.91413 3.50214 3.73781 3.61988 3.58928 3.76833C3.2893 4.06814 3.12071 4.47483 3.12059 4.89894C3.12047 5.32306 3.28883 5.72984 3.58864 6.02982L8.67426 11.1154C9.18386 11.625 9.87497 11.9112 10.5956 11.9112C11.3162 11.9112 12.0073 11.625 12.5169 11.1154V11.1161Z" fill="white"/>
</svg>
