<svg width="18" height="18" viewBox="0 0 18 18" fill="none" xmlns="http://www.w3.org/2000/svg">
<g clip-path="url(#clip0_865_9152)">
<path d="M2.25 4.5C2.25 3.90326 2.48705 3.33097 2.90901 2.90901C3.33097 2.48705 3.90326 2.25 4.5 2.25H11.25C11.8467 2.25 12.419 2.48705 12.841 2.90901C13.2629 3.33097 13.5 3.90326 13.5 4.5V17.4375C13.4999 17.5392 13.4723 17.6391 13.42 17.7264C13.3677 17.8136 13.2927 17.8851 13.203 17.9331C13.1133 17.9811 13.0123 18.0039 12.9106 17.9991C12.809 17.9942 12.7106 17.9619 12.6259 17.9055L7.875 14.7386L3.12412 17.9055C3.03942 17.9619 2.94101 17.9942 2.83938 17.9991C2.73775 18.0039 2.6367 17.9811 2.547 17.9331C2.4573 17.8851 2.3823 17.8136 2.33 17.7264C2.2777 17.6391 2.25005 17.5392 2.25 17.4375V4.5ZM4.5 3.375C4.20163 3.375 3.91548 3.49353 3.7045 3.7045C3.49353 3.91548 3.375 4.20163 3.375 4.5V16.3868L7.56337 13.5945C7.65569 13.5331 7.76411 13.5003 7.875 13.5003C7.98589 13.5003 8.09431 13.5331 8.18663 13.5945L12.375 16.3868V4.5C12.375 4.20163 12.2565 3.91548 12.0455 3.7045C11.8345 3.49353 11.5484 3.375 11.25 3.375H4.5Z" fill="#E72D38"/>
<path d="M4.80469 1.125H13.5032C13.8016 1.125 14.0877 1.24353 14.2987 1.4545C14.5097 1.66548 14.6282 1.95163 14.6282 2.25V15.489L14.8791 15.6555C14.9638 15.7119 15.0622 15.7442 15.1638 15.7491C15.2654 15.7539 15.3665 15.7311 15.4562 15.6831C15.5459 15.6351 15.6209 15.5636 15.6732 15.4764C15.7255 15.3891 15.7531 15.2892 15.7532 15.1875V2.25C15.7532 1.65326 15.5161 1.08097 15.0942 0.65901C14.6722 0.237053 14.0999 0 13.5032 0L6.75319 0C6.35824 1.00332e-05 5.97025 0.103979 5.62822 0.301457C5.28619 0.498935 5.00216 0.782965 4.80469 1.125Z" fill="#E72D38"/>
</g>
<defs>
<clipPath id="clip0_865_9152">
<rect width="18" height="18" fill="white"/>
</clipPath>
</defs>
</svg>
