<svg width="24" height="24" viewBox="0 0 24 24" fill="none" xmlns="http://www.w3.org/2000/svg">
<path d="M18.6607 2.47626H5.32738C4.8014 2.47626 4.375 2.90265 4.375 3.42864V20.5715C4.375 21.0975 4.8014 21.5239 5.32738 21.5239H18.6607C19.1867 21.5239 19.6131 21.0975 19.6131 20.5715V3.42864C19.6131 2.90265 19.1867 2.47626 18.6607 2.47626Z" stroke="#E72D38" stroke-width="1.25" stroke-linejoin="round"/>
<path d="M11.9907 9.6183C12.4959 9.6183 12.9804 9.41762 13.3376 9.06041C13.6948 8.7032 13.8955 8.21871 13.8955 7.71354C13.8955 7.20836 13.6948 6.72388 13.3376 6.36667C12.9804 6.00946 12.4959 5.80878 11.9907 5.80878C11.4855 5.80878 11.001 6.00946 10.6438 6.36667C10.2866 6.72388 10.0859 7.20836 10.0859 7.71354C10.0859 8.21871 10.2866 8.7032 10.6438 9.06041C11.001 9.41762 11.4855 9.6183 11.9907 9.6183Z" stroke="#E72D38" stroke-width="1.25" stroke-linejoin="round"/>
<path d="M14.8471 12.4765C14.8471 11.7187 14.5461 10.992 14.0103 10.4562C13.4744 9.92034 12.7477 9.61932 11.99 9.61932C11.2322 9.61932 10.5055 9.92034 9.96965 10.4562C9.43383 10.992 9.13281 11.7187 9.13281 12.4765M9.13281 15.3336H14.8471M10.2757 18.1908H13.609" stroke="#E72D38" stroke-width="1.25" stroke-linecap="round" stroke-linejoin="round"/>
</svg>
