<svg width="20" height="20" viewBox="0 0 20 20" fill="none" xmlns="http://www.w3.org/2000/svg">
<rect width="20" height="20" rx="10" fill="#147BFF"/>
<path d="M11.6621 10.24C11.7521 10.282 11.8541 10.3 11.9501 10.3C12.1481 10.3 12.3341 10.222 12.4781 10.084L13.7861 8.8H14.35C15.262 8.8 16 8.062 16 7.15V5.65C16 4.738 15.262 4 14.35 4H11.6501C10.7382 4 10.0002 4.738 10.0002 5.65V7.15C10.0002 7.906 10.5102 8.542 11.2001 8.74V9.55C11.2001 9.85 11.3861 10.12 11.6621 10.24ZM7.60025 10.9C6.44228 10.9 5.50031 9.958 5.50031 8.8C5.50031 7.642 6.44228 6.7 7.60025 6.7C8.75821 6.7 9.70019 7.642 9.70019 8.8C9.70019 9.958 8.75821 10.9 7.60025 10.9ZM7.60025 16C6.36429 16 5.41631 15.664 4.78033 14.998C3.97876 14.1556 3.99856 13.0936 4.00036 12.9838V12.976C4.00036 12.334 4.54034 11.8 5.20032 11.8H10.0002C10.6602 11.8 11.2001 12.34 11.2001 13L11.2007 13.0036C11.2025 13.0798 11.2277 14.1496 10.4208 14.998C9.78418 15.664 8.83621 16 7.60025 16Z" fill="white"/>
</svg>
