<svg width="22" height="20" viewBox="0 0 22 20" fill="none" xmlns="http://www.w3.org/2000/svg">
<path d="M6.73125 13.1617H1.44485C1.10891 12.1537 0.929688 11.1009 0.929688 10.0032C0.929688 8.9056 1.10891 7.85276 1.44485 6.8448H6.73125C6.59687 7.85276 6.52968 8.9056 6.52968 10.0032C6.52968 11.1009 6.59687 12.1537 6.73125 13.1617ZM1.91525 14.3489C3.30401 17.2384 6.03685 19.3889 9.30725 19.9265C8.23209 18.9185 7.38085 16.9696 6.88805 14.3489H1.91525ZM9.30725 0.0800781C6.03677 0.617718 3.32645 2.76804 1.91525 5.65768H6.93285C7.38081 3.0144 8.27677 1.06568 9.30721 0.0800781H9.30725ZM8.14241 14.3489C8.81445 17.7089 10.0688 19.4785 11.0096 19.4785C11.9504 19.4785 13.2048 17.709 13.8768 14.3489H8.14241ZM13.8544 5.65768C13.1824 2.29768 11.928 0.528078 11.0096 0.528078C10.0911 0.528078 8.81441 2.2976 8.14237 5.65768H13.8544H13.8544ZM7.73921 10.0033C7.73921 11.1009 7.8064 12.1538 7.96327 13.1617H14.1009C14.2352 12.1761 14.3249 11.1233 14.3249 10.0033C14.3249 9.06248 14.2577 8.00968 14.1009 6.84484H7.96327C7.80655 7.8528 7.73921 8.90564 7.73921 10.0033ZM12.6896 19.9265C15.9601 19.3888 18.7152 17.2385 20.0816 14.3489L15.064 14.349C14.5937 16.9922 13.7201 18.941 12.6896 19.9266L12.6896 19.9265ZM20.0816 5.65768C18.6704 2.76816 15.96 0.617678 12.6896 0.0800781C13.7648 1.08804 14.616 3.03696 15.1088 5.65768H20.0816ZM20.5519 6.84488H15.2655C15.3999 8.00972 15.4896 9.01768 15.4896 10.0033C15.4896 11.101 15.4224 12.1538 15.3104 13.1618H20.5968C20.9104 12.1761 21.0896 11.101 21.0896 10.0033C21.0896 8.90568 20.8655 7.85284 20.5519 6.84488H20.5519Z" fill="white"/>
</svg>
