<svg width="68" height="17" viewBox="0 0 68 17" fill="none" xmlns="http://www.w3.org/2000/svg">
<path d="M14.323 16.9071V0H21.6824C23.0912 0 24.2934 0.2284 25.2893 0.685201C26.2912 1.1365 27.0532 1.77767 27.5754 2.60872C28.1037 3.43426 28.3679 4.40565 28.3679 5.52288C28.3679 6.64562 28.1007 7.61151 27.5663 8.42054C27.032 9.22407 26.2578 9.84048 25.2437 10.2698C24.2358 10.699 23.0152 10.9137 21.5822 10.9137H16.6547V8.04079H20.9446C21.6976 8.04079 22.323 7.94723 22.8209 7.76011C23.3189 7.57298 23.6893 7.2923 23.9321 6.91805C24.1811 6.54381 24.3056 6.07875 24.3056 5.52288C24.3056 4.96152 24.1811 4.4882 23.9321 4.10295C23.6893 3.7177 23.3158 3.426 22.8118 3.22787C22.3139 3.02424 21.6854 2.92242 20.9264 2.92242H18.2668V16.9071H14.323ZM24.3967 9.21306L29.0328 16.9071H24.679L20.1431 9.21306H24.3967Z" fill="#FF2130"/>
<path d="M33.5595 16.9071V0H46.1289V2.94719H37.5034V6.97584H45.4822V9.92303H37.5034V13.9599H46.1653V16.9071H33.5595Z" fill="#FF2130"/>
<path d="M58.2815 16.9071H51.669V0H58.3362C60.2125 0 61.8277 0.338473 63.1818 1.01542C64.5359 1.68686 65.5772 2.65275 66.3059 3.91308C67.0406 5.17341 67.408 6.6814 67.408 8.43705C67.408 10.1982 67.0406 11.7117 66.3059 12.9775C65.5772 14.2434 64.5298 15.2148 63.1636 15.8917C61.8034 16.5687 60.1761 16.9071 58.2815 16.9071ZM55.6128 13.8444H58.1176C59.2835 13.8444 60.2641 13.6572 61.0596 13.283C61.8611 12.9032 62.4622 12.3171 62.863 11.5246C63.2698 10.7266 63.4732 9.69738 63.4732 8.43705C63.4732 7.18773 63.2698 6.16681 62.863 5.37429C62.4622 4.58177 61.8641 3.99838 61.0687 3.62413C60.2732 3.24989 59.2926 3.06277 58.1267 3.06277H55.6128V13.8444Z" fill="#FF2130"/>
<path d="M2.48782 17C1.96182 17 1.5269 16.9009 1.18306 16.7028C0.839228 16.5026 0.59786 16.2199 0.45896 15.8546C0.322336 15.4872 0.299566 15.0548 0.390648 14.5574C0.479453 14.0683 0.660479 13.639 0.933726 13.2696C1.20697 12.8981 1.54853 12.6091 1.9584 12.4028C2.37055 12.1943 2.82596 12.0901 3.32464 12.0901C3.64798 12.0901 3.94513 12.1376 4.2161 12.2325C4.48707 12.3254 4.71592 12.4698 4.90264 12.6659C5.08935 12.862 5.21801 13.1117 5.2886 13.4151C5.35919 13.7164 5.35577 14.0755 5.27835 14.4924L5.22029 14.836H0.916648L1.04986 14.0807H4.16487C4.20586 13.866 4.19219 13.6751 4.12388 13.508C4.05557 13.3387 3.94172 13.2056 3.78232 13.1086C3.62293 13.0116 3.42369 12.9631 3.1846 12.9631C2.94095 12.9631 2.71325 13.0199 2.50148 13.1334C2.29199 13.2448 2.11552 13.3893 1.97206 13.5668C1.82861 13.7443 1.73753 13.931 1.69882 14.1271L1.55878 14.8515C1.50868 15.1487 1.52007 15.3912 1.59293 15.579C1.6658 15.7668 1.79332 15.9051 1.97548 15.9939C2.15764 16.0826 2.38763 16.127 2.66543 16.127C2.84759 16.127 3.01609 16.1043 3.17093 16.0589C3.32577 16.0135 3.46354 15.9454 3.58422 15.8546C3.70718 15.7617 3.80965 15.6482 3.89162 15.514L5.02218 15.6317C4.89694 15.9082 4.71364 16.1497 4.47227 16.3561C4.2309 16.5604 3.94172 16.7193 3.60471 16.8328C3.26999 16.9443 2.89769 17 2.48782 17Z" fill="#FF2130"/>
<path d="M9.23523 10.567L8.07393 16.9071H6.83749L7.99879 10.567H9.23523Z" fill="#FF2130"/>
</svg>
