<svg width="22" height="22" viewBox="0 0 22 22" fill="none" xmlns="http://www.w3.org/2000/svg">
<path d="M3.29688 9.28613V17.0004C3.29688 17.4551 3.47749 17.8911 3.79898 18.2126C4.12047 18.5341 4.5565 18.7147 5.01116 18.7147H17.0112C17.4658 18.7147 17.9019 18.5341 18.2233 18.2126C18.5448 17.8911 18.7254 17.4551 18.7254 17.0004V9.28613" stroke="#E72D38"/>
<path d="M13.4397 18.7146V13.5717C13.4397 13.1171 13.2591 12.681 12.9376 12.3595C12.6161 12.038 12.1801 11.8574 11.7254 11.8574H10.0112C9.5565 11.8574 9.12047 12.038 8.79898 12.3595C8.47749 12.681 8.29688 13.1171 8.29688 13.5717V18.7146" stroke="#E72D38" stroke-miterlimit="16"/>
<path d="M19.4232 8.74099L17.9712 3.65899C17.9405 3.55155 17.8756 3.45703 17.7864 3.38976C17.6971 3.32249 17.5884 3.28611 17.4767 3.28613H14.0078L14.415 8.17528C14.4211 8.25389 14.4459 8.3299 14.4874 8.39699C14.5288 8.46408 14.5857 8.5203 14.6532 8.56099C14.9875 8.7607 15.6407 9.12928 16.1507 9.28613C17.0215 9.55442 18.2935 9.45756 19.0187 9.36842C19.0892 9.3593 19.1568 9.33492 19.2169 9.29696C19.277 9.259 19.3281 9.20839 19.3666 9.14864C19.4052 9.0889 19.4302 9.02148 19.44 8.95107C19.4497 8.88066 19.444 8.80897 19.4232 8.74099Z" stroke="#E72D38"/>
<path d="M12.7286 9.28613C13.2155 9.13613 13.8326 8.79413 14.1772 8.59013C14.2575 8.54232 14.3227 8.47277 14.3651 8.3895C14.4076 8.30623 14.4257 8.21265 14.4172 8.11956L14.0143 3.28613H8.01434L7.61148 8.11956C7.60285 8.21279 7.62082 8.30655 7.6633 8.38999C7.70577 8.47343 7.77102 8.54312 7.85148 8.59099C8.19606 8.79413 8.8132 9.13613 9.30006 9.28613C10.5798 9.68042 11.4489 9.68042 12.7286 9.28613Z" stroke="#E72D38"/>
<path d="M4.04317 3.65899L2.59117 8.74185C2.57068 8.80972 2.5652 8.88123 2.57512 8.95143C2.58503 9.02163 2.61011 9.08883 2.6486 9.14836C2.6871 9.2079 2.73809 9.25834 2.79803 9.2962C2.85798 9.33405 2.92544 9.3584 2.99574 9.36756C3.72003 9.45756 4.99289 9.55356 5.86374 9.28613C6.37374 9.12928 7.02774 8.7607 7.36117 8.56185C7.42883 8.52108 7.48576 8.46472 7.52721 8.39747C7.56867 8.33022 7.59343 8.25404 7.59946 8.17528L8.0066 3.28613H4.53774C4.42599 3.28611 4.31727 3.32249 4.22803 3.38976C4.1388 3.45703 4.0739 3.55155 4.04317 3.65899Z" stroke="#E72D38"/>
</svg>
